HIERARCHY
ROOT Hips
{
    OFFSET 0.000000 0.000000 0.000000
    CHANNELS 6 Xposition Yposition Zposition Zrotation Xrotation Yrotation
    JOINT Spine
    {
        OFFSET -0.000000 14.517291 0.000000
        CHANNELS 3 Zrotation Xrotation Yrotation
        JOINT Spine1
        {
            OFFSET -0.000000 37.558300 0.000000
            CHANNELS 3 Zrotation Xrotation Yrotation
            JOINT Neck
            {
                OFFSET -0.000000 37.404057 3.400369
                CHANNELS 3 Zrotation Xrotation Yrotation
                JOINT Head
                {
                    OFFSET -0.000000 24.785618 -3.540803
                    CHANNELS 3 Zrotation Xrotation Yrotation
                    End Site
                    {
                        OFFSET -0.000000 35.408028 0.000000
                    }
                }
            }
            JOINT LeftShoulder
            {
                OFFSET 6.992933 33.973492 -0.192664
                CHANNELS 3 Zrotation Xrotation Yrotation
                JOINT LeftArm
                {
                    OFFSET 21.527611 0.000000 0.000000
                    CHANNELS 3 Zrotation Xrotation Yrotation
                    JOINT LeftForeArm
                    {
                        OFFSET 56.353916 0.000000 0.000000
                        CHANNELS 3 Zrotation Xrotation Yrotation
                        JOINT LeftHand
                        {
                            OFFSET 47.774071 0.000000 0.000000
                            CHANNELS 3 Zrotation Xrotation Yrotation
                            End Site
                            {
                                OFFSET 26.556021 0.000000 0.000000
                            }
                        }
                    }
                }
            }
            JOINT RightShoulder
            {
                OFFSET -7.065357 33.973492 -0.192664
                CHANNELS 3 Zrotation Xrotation Yrotation
                JOINT RightArm
                {
                    OFFSET -21.527611 0.000000 0.000000
                    CHANNELS 3 Zrotation Xrotation Yrotation
                    JOINT RightForeArm
                    {
                        OFFSET -56.353916 0.000000 0.000000
                        CHANNELS 3 Zrotation Xrotation Yrotation
                        JOINT RightHand
                        {
                            OFFSET -47.774071 0.000000 0.000000
                            CHANNELS 3 Zrotation Xrotation Yrotation
                            End Site
                            {
                                OFFSET -26.556021 0.000000 0.000000
                            }
                        }
                    }
                }
            }
        }
    }
    JOINT LeftUpLeg
    {
        OFFSET 17.704014 0.000000 0.000000
        CHANNELS 3 Zrotation Xrotation Yrotation
        JOINT LeftLeg
        {
            OFFSET -0.000000 -81.181816 0.000000
            CHANNELS 3 Zrotation Xrotation Yrotation
            JOINT LeftFoot
            {
                OFFSET -0.000000 -62.821102 0.000000
                CHANNELS 3 Zrotation Xrotation Yrotation
                JOINT LeftToeBase
                {
                    OFFSET -0.000000 -11.507608 26.556021
                    CHANNELS 3 Zrotation Xrotation Yrotation
                    End Site
                    {
                        OFFSET -0.000000 0.000000 7.081605
                    }
                }
            }
        }
    }
    JOINT RightUpLeg
    {
        OFFSET -17.704014 0.000000 0.000000
        CHANNELS 3 Zrotation Xrotation Yrotation
        JOINT RightLeg
        {
            OFFSET -0.000000 -81.181816 0.000000
            CHANNELS 3 Zrotation Xrotation Yrotation
            JOINT RightFoot
            {
                OFFSET -0.000000 -62.821102 0.000000
                CHANNELS 3 Zrotation Xrotation Yrotation
                JOINT RightToeBase
                {
                    OFFSET -0.000000 -11.507608 26.556021
                    CHANNELS 3 Zrotation Xrotation Yrotation
                    End Site
                    {
                        OFFSET -0.000000 0.000000 7.081605
                    }
                }
            }
        }
    }
}
MOTION
Frames:    4
Frame Time:    0.008333
13.809080    156.153259    -116.710747    -2.099793    -4.224020    41.013676    -0.302488    -2.976425    -1.424260    -5.655825    0.670302    -0.441415    -1.472106    -3.113485    -23.447710    17.546371    6.936272    -22.876541    9.953907    4.368174    -23.275696    -29.143513    25.457983    -52.600166    -20.956343    9.558641    -98.808311    -0.078036    -15.330270    -6.492398    -14.216668    -7.317245    -4.788147    28.688961    -14.355467    61.034733    -19.553011    -30.539989    41.673912    7.570003    -22.217804    26.369781    18.800226    -1.489646    0.936079    -12.905804    32.011814    -17.926317    2.685106    -27.399557    43.876228    0.000000    0.000000    0.000000    -15.979581    -18.464361    -11.823214    8.610017    20.951820    -14.948847    4.533826    10.294802    -14.653045    0.000000    0.000000    0.000000    
13.748723    156.146851    -116.734444    -2.079978    -4.224251    41.012283    -0.273421    -2.989427    -1.409097    -5.701666    0.702060    -0.434634    -1.524459    -3.092190    -23.456200    17.616320    6.941989    -22.872255    9.936066    4.362774    -23.253790    -29.116333    25.466230    -52.623260    -20.965006    9.540460    -98.793610    -0.124747    -15.349552    -6.510941    -14.286032    -7.291744    -4.729402    28.538883    -14.280414    61.058365    -18.690802    -30.029287    42.625412    7.865988    -21.743402    26.490961    18.795208    -1.493648    0.930467    -12.903030    32.005909    -17.925175    2.677016    -27.395319    43.869434    0.000000    0.000000    0.000000    -15.990082    -18.473991    -11.830621    8.619988    20.960815    -14.912677    4.514200    10.292748    -14.670006    0.000000    0.000000    0.000000    
13.687942    156.141479    -116.751602    -2.055638    -4.232479    41.016266    -0.250975    -2.996199    -1.392320    -5.736699    0.735886    -0.427387    -1.588981    -3.090409    -23.457975    17.682995    6.981288    -22.863941    9.903794    4.350083    -23.248329    -29.079290    25.487085    -52.627563    -20.956043    9.511978    -98.802528    -0.123487    -15.370564    -6.489201    -14.358732    -7.259459    -4.675471    28.488590    -14.251060    61.224220    -17.917583    -29.478439    43.374119    8.178441    -21.235178    26.645006    18.796616    -1.494138    0.939529    -12.891666    32.005520    -17.960011    2.608880    -27.497763    43.879078    0.000000    0.000000    0.000000    -15.994433    -18.468102    -11.843991    8.623885    20.956554    -14.948988    4.492546    10.295095    -14.613209    0.000000    0.000000    0.000000    
13.629400    156.135834    -116.773033    -2.029295    -4.232791    41.020279    -0.232463    -3.007499    -1.376320    -5.765420    0.762031    -0.420725    -1.685108    -3.048077    -23.459080    17.792208    6.989480    -22.841982    9.844658    4.344132    -23.261415    -29.050293    25.504808    -52.588749    -20.948889    9.490888    -98.818169    -0.138106    -15.388600    -6.481050    -14.441681    -7.198821    -4.629676    28.393608    -14.158165    61.391617    -17.222050    -28.980288    44.094807    8.333459    -20.808655    26.726460    18.785969    -1.497000    0.940286    -12.883817    32.001984    -17.968441    2.603283    -27.480469    43.869354    0.000000    0.000000    0.000000    -16.008095    -18.476540    -11.854113    8.625425    20.975988    -14.932021    4.481616    10.288910    -14.614851    0.000000    0.000000    0.000000    
